<?xml version="1.0" encoding="utf-8"?>
<!-- Generator: Adobe Illustrator 25.4.1, SVG Export Plug-In . SVG Version: 6.00 Build 0)  -->
<svg version="1.1" id="Layer_1" xmlns="http://www.w3.org/2000/svg" xmlns:xlink="http://www.w3.org/1999/xlink" x="0px" y="0px"
	 viewBox="0 0 65 65" style="enable-background:new 0 0 65 65;" xml:space="preserve">
<style type="text/css">
	.st0{fill:#3B3B40;}
	.st1{fill:#F25E3D;}
</style>
<g>
	<path class="st0" d="M25.9,40.7l-3.8,3.9c-0.3,0.4-0.5,0.8-0.5,1.3v8.3c0,1.1-0.9,1.9-1.9,1.9h-6.1c-1.1,0-1.9-0.9-1.9-1.9V14.8
		c0-1.1,0.9-1.9,1.9-1.9h6.1c1.1,0,1.9,0.9,1.9,1.9v13.5c0,1.7,2.1,2.6,3.3,1.3l15.3-16.1c0.4-0.4,0.9-0.6,1.4-0.6h5.9
		c1.7,0,2.6,2,1.4,3.2L35.1,30.9c-0.6,0.7-0.7,1.8-0.1,2.5l15.5,19.6c1,1.3,0.1,3.1-1.5,3.1h-6.8c-0.6,0-1.1-0.3-1.5-0.7L28.8,40.8
		C28.1,39.9,26.7,39.9,25.9,40.7z"/>
	<path class="st1" d="M56.6,32.2l-8.5,9.6c-0.8,0.9-2.2,0.9-3-0.1l-2.8-3.6c-0.6-0.7-0.6-1.8,0.1-2.5l5.3-6c0.4-0.4,0.9-0.7,1.4-0.7
		h6C56.8,29,57.7,31,56.6,32.2z"/>
</g>
</svg>
