<?xml version="1.0" encoding="utf-8"?>
<!-- Generator: Adobe Illustrator 25.4.1, SVG Export Plug-In . SVG Version: 6.00 Build 0)  -->
<svg version="1.1" id="Layer_1" xmlns="http://www.w3.org/2000/svg" xmlns:xlink="http://www.w3.org/1999/xlink" x="0px" y="0px"
	 viewBox="0 0 204 144" style="enable-background:new 0 0 204 144;" xml:space="preserve">
<style type="text/css">
	.st0{fill:#3B3B40;}
	.st1{fill:#F25E3D;}
	.st2{fill:#47414C;}
</style>
<g>
	<path class="st0" d="M95.9,40.7l-3.8,3.9c-0.3,0.4-0.5,0.8-0.5,1.3v8.3c0,1.1-0.9,1.9-1.9,1.9h-6.1c-1.1,0-1.9-0.9-1.9-1.9V14.8
		c0-1.1,0.9-1.9,1.9-1.9h6.1c1.1,0,1.9,0.9,1.9,1.9v13.5c0,1.7,2.1,2.6,3.3,1.3l15.3-16.1c0.4-0.4,0.9-0.6,1.4-0.6h5.9
		c1.7,0,2.6,2,1.4,3.2l-13.8,14.9c-0.6,0.7-0.7,1.8-0.1,2.5l15.5,19.6c1,1.3,0.1,3.1-1.5,3.1h-6.8c-0.6,0-1.1-0.3-1.5-0.7L98.8,40.8
		C98.1,39.9,96.7,39.9,95.9,40.7z"/>
	<path class="st1" d="M126.6,32.2l-8.5,9.6c-0.8,0.9-2.2,0.9-3-0.1l-2.8-3.6c-0.6-0.7-0.6-1.8,0.1-2.5l5.3-6
		c0.4-0.4,0.9-0.7,1.4-0.7h6C126.8,29,127.7,31,126.6,32.2z"/>
</g>
<g>
	<path class="st2" d="M16,86.9l-1.7,1.8v3.2h-2.9V79.3h2.9v5.9l5.6-5.9h3.2l-5.2,5.6l5.5,7H20L16,86.9z"/>
	<path class="st2" d="M34.4,89.5v2.3h-9.8V79.3h9.5v2.3h-6.6v2.7h5.9v2.3h-5.9v2.9H34.4z"/>
	<path class="st2" d="M48.7,79.3l-5.5,12.6h-2.9l-5.4-12.6h3.1l3.8,9l3.9-9H48.7z"/>
	<path class="st2" d="M49.7,79.3h2.9v12.6h-2.9V79.3z"/>
	<path class="st2" d="M67.2,79.3v12.6h-2.4l-6.3-7.6v7.6h-2.9V79.3h2.4l6.3,7.6v-7.6H67.2z"/>
	<path class="st2" d="M78.2,81.6v3.3H84v2.3h-5.8v4.6h-2.9V79.3h9.5v2.3H78.2z"/>
	<path class="st2" d="M96.5,89.5v2.3h-9.8V79.3h9.5v2.3h-6.6v2.7h5.9v2.3h-5.9v2.9H96.5z"/>
	<path class="st2" d="M106.9,91.9l-2.4-3.5h-0.1h-2.5v3.5h-2.9V79.3h5.5c1.1,0,2.1,0.2,2.9,0.6c0.8,0.4,1.5,0.9,1.9,1.6
		s0.7,1.5,0.7,2.4s-0.2,1.7-0.7,2.4c-0.5,0.7-1.1,1.2-1.9,1.6l2.8,4H106.9z M106.1,82.2c-0.5-0.4-1.1-0.6-2-0.6h-2.4V86h2.4
		c0.9,0,1.5-0.2,2-0.6c0.5-0.4,0.7-0.9,0.7-1.6C106.8,83.1,106.6,82.6,106.1,82.2z"/>
	<path class="st2" d="M123.6,79.3v12.6h-2.4l-6.3-7.6v7.6h-2.9V79.3h2.4l6.3,7.6v-7.6H123.6z"/>
	<path class="st2" d="M134.9,89.2h-5.8l-1.1,2.7h-3l5.6-12.6h2.9l5.6,12.6H136L134.9,89.2z M134,86.9l-2-4.8l-2,4.8H134z
		 M132.8,75.6h3l-3.3,2.6h-2.2L132.8,75.6z"/>
	<path class="st2" d="M152,79.3v12.6h-2.4l-6.3-7.6v7.6h-2.9V79.3h2.4l6.3,7.6v-7.6H152z"/>
	<path class="st2" d="M155,79.3h5.7c1.4,0,2.6,0.3,3.6,0.8s1.9,1.3,2.4,2.2s0.9,2.1,0.9,3.3c0,1.3-0.3,2.4-0.9,3.3
		c-0.6,0.9-1.4,1.7-2.4,2.2s-2.3,0.8-3.6,0.8H155V79.3z M160.5,89.5c1.3,0,2.3-0.4,3-1.1c0.8-0.7,1.1-1.7,1.1-2.9
		c0-1.2-0.4-2.2-1.1-2.9c-0.8-0.7-1.8-1.1-3-1.1h-2.7v7.8H160.5z"/>
	<path class="st2" d="M179.6,89.5v2.3h-9.8V79.3h9.5v2.3h-6.6v2.7h5.9v2.3h-5.9v2.9H179.6z"/>
	<path class="st2" d="M192.1,89.5v2.4h-11V90l6.9-8.3h-6.8v-2.4h10.6v1.9l-6.9,8.3H192.1z"/>
</g>
<g>
	<path class="st1" d="M63.7,103.4h3c2.2,0,3.7,1.4,3.7,3.4s-1.5,3.4-3.7,3.4h-3V103.4z M66.6,109.1c1.5,0,2.5-0.9,2.5-2.3
		s-1-2.3-2.5-2.3H65v4.6H66.6z"/>
	<path class="st1" d="M76.8,109.2v1.1h-5.1v-6.8h4.9v1.1H73v1.8h3.3v1H73v1.9H76.8z"/>
	<path class="st1" d="M84.3,103.4l-3,6.8h-1.2l-3-6.8h1.4l2.3,5.2l2.3-5.2H84.3z"/>
	<path class="st1" d="M90.1,109.2v1.1H85v-6.8H90v1.1h-3.7v1.8h3.3v1h-3.3v1.9H90.1z"/>
	<path class="st1" d="M91.5,103.4h1.3v5.7h3.5v1.1h-4.8V103.4z"/>
	<path class="st1" d="M96.7,106.8c0-2,1.5-3.5,3.6-3.5c2.1,0,3.6,1.5,3.6,3.5c0,2-1.5,3.5-3.6,3.5C98.2,110.3,96.7,108.8,96.7,106.8
		z M102.7,106.8c0-1.4-1-2.4-2.4-2.4c-1.4,0-2.4,1-2.4,2.4s1,2.4,2.4,2.4C101.7,109.2,102.7,108.2,102.7,106.8z"/>
	<path class="st1" d="M111,105.8c0,1.5-1.1,2.4-2.9,2.4h-1.5v2h-1.3v-6.8h2.8C109.9,103.4,111,104.3,111,105.8z M109.7,105.8
		c0-0.9-0.6-1.3-1.7-1.3h-1.5v2.7h1.5C109.1,107.2,109.7,106.7,109.7,105.8z"/>
	<path class="st1" d="M118.5,110.2l0-4.5l-2.2,3.7h-0.6l-2.2-3.7v4.4h-1.2v-6.8h1l2.7,4.5l2.6-4.5h1l0,6.8H118.5z"/>
	<path class="st1" d="M126.6,109.2v1.1h-5.1v-6.8h4.9v1.1h-3.7v1.8h3.3v1h-3.3v1.9H126.6z"/>
	<path class="st1" d="M134,103.4v6.8h-1l-3.7-4.6v4.6H128v-6.8h1l3.7,4.6v-4.6H134z"/>
	<path class="st1" d="M137.2,104.5h-2.2v-1.1h5.7v1.1h-2.2v5.7h-1.3V104.5z"/>
</g>
</svg>
