<svg id="Layer_1" data-name="Layer 1" xmlns="http://www.w3.org/2000/svg" viewBox="0 0 180.75 97.47">
  <defs>
    <style>
      .cls-1 {
        fill: #3b3b40;
      }

      .cls-2 {
        fill: #f25e3d;
      }

      .cls-3 {
        fill: #47414c;
      }
    </style>
  </defs>
  <g>
    <path class="cls-1" d="M677,362.72l-3.78,3.94a2,2,0,0,0-.53,1.33v8.26a1.93,1.93,0,0,1-1.93,1.93H664.6a1.92,1.92,0,0,1-1.93-1.93V336.76a1.92,1.92,0,0,1,1.93-1.93h6.11a1.93,1.93,0,0,1,1.93,1.93v13.48a1.93,1.93,0,0,0,3.33,1.33l15.29-16.14a2,2,0,0,1,1.4-.6h5.89a1.93,1.93,0,0,1,1.42,3.24l-13.82,14.87a1.93,1.93,0,0,0-.1,2.51l15.51,19.6a1.93,1.93,0,0,1-1.51,3.13h-6.8a1.94,1.94,0,0,1-1.5-.71l-11.91-14.63A1.94,1.94,0,0,0,677,362.72Z" transform="translate(-592.36 -334.83)"/>
    <path class="cls-2" d="M707.56,354.24l-8.46,9.61a1.94,1.94,0,0,1-3-.07l-2.84-3.6a1.93,1.93,0,0,1,.06-2.47l5.29-6a2,2,0,0,1,1.45-.65h6A1.93,1.93,0,0,1,707.56,354.24Z" transform="translate(-592.36 -334.83)"/>
  </g>
  <g>
    <path class="cls-3" d="M597,408.9l-1.69,1.77v3.18h-2.9v-12.6h2.9v5.89l5.58-5.89h3.24l-5.22,5.62,5.53,7H601Z" transform="translate(-592.36 -334.83)"/>
    <path class="cls-3" d="M615.44,411.51v2.34h-9.76v-12.6h9.52v2.34h-6.62v2.74h5.85v2.27h-5.85v2.91Z" transform="translate(-592.36 -334.83)"/>
    <path class="cls-3" d="M629.69,401.25l-5.45,12.6h-2.88l-5.44-12.6h3.15l3.84,9,3.89-9Z" transform="translate(-592.36 -334.83)"/>
    <path class="cls-3" d="M630.74,401.25h2.91v12.6h-2.91Z" transform="translate(-592.36 -334.83)"/>
    <path class="cls-3" d="M648.2,401.25v12.6h-2.4l-6.28-7.65v7.65h-2.88v-12.6h2.41l6.27,7.65v-7.65Z" transform="translate(-592.36 -334.83)"/>
    <path class="cls-3" d="M659.2,403.59v3.33H665v2.34H659.2v4.59h-2.92v-12.6h9.52v2.34Z" transform="translate(-592.36 -334.83)"/>
    <path class="cls-3" d="M677.54,411.51v2.34h-9.76v-12.6h9.52v2.34h-6.62v2.74h5.85v2.27h-5.85v2.91Z" transform="translate(-592.36 -334.83)"/>
    <path class="cls-3" d="M687.89,413.85l-2.43-3.51h-2.68v3.51h-2.92v-12.6h5.45a7,7,0,0,1,2.91.56,4.37,4.37,0,0,1,1.9,1.58,4.43,4.43,0,0,1,.67,2.43,4.12,4.12,0,0,1-2.6,4l2.83,4.05Zm-.74-9.66a3.12,3.12,0,0,0-2-.56h-2.37V408h2.37a3,3,0,0,0,2-.58,2,2,0,0,0,.68-1.62A2,2,0,0,0,687.15,404.19Z" transform="translate(-592.36 -334.83)"/>
    <path class="cls-3" d="M704.64,401.25v12.6h-2.39L696,406.2v7.65h-2.88v-12.6h2.41l6.26,7.65v-7.65Z" transform="translate(-592.36 -334.83)"/>
    <path class="cls-3" d="M715.93,411.15h-5.85l-1.12,2.7h-3l5.61-12.6h2.88l5.64,12.6h-3.06Zm-.92-2.21-2-4.83-2,4.83Zm-1.19-11.31h3l-3.26,2.6h-2.2Z" transform="translate(-592.36 -334.83)"/>
    <path class="cls-3" d="M733,401.25v12.6h-2.4l-6.28-7.65v7.65h-2.88v-12.6h2.41l6.27,7.65v-7.65Z" transform="translate(-592.36 -334.83)"/>
    <path class="cls-3" d="M736,401.25h5.73a8.08,8.08,0,0,1,3.63.78,5.88,5.88,0,0,1,2.44,2.21,6.67,6.67,0,0,1,0,6.62,5.81,5.81,0,0,1-2.44,2.21,8.08,8.08,0,0,1-3.63.78H736Zm5.58,10.21a4.22,4.22,0,0,0,3-1.06,4.19,4.19,0,0,0,0-5.7,4.25,4.25,0,0,0-3-1.05h-2.66v7.81Z" transform="translate(-592.36 -334.83)"/>
    <path class="cls-3" d="M760.59,411.51v2.34h-9.76v-12.6h9.52v2.34h-6.62v2.74h5.85v2.27h-5.85v2.91Z" transform="translate(-592.36 -334.83)"/>
    <path class="cls-3" d="M773.12,411.48v2.37h-11V412l6.91-8.33h-6.77v-2.38h10.61v1.89l-6.9,8.34Z" transform="translate(-592.36 -334.83)"/>
  </g>
  <g>
    <path class="cls-2" d="M644.73,425.43h3a3.4,3.4,0,1,1,0,6.78h-3Zm2.91,5.71a2.33,2.33,0,1,0,0-4.64H646v4.64Z" transform="translate(-592.36 -334.83)"/>
    <path class="cls-2" d="M657.81,431.15v1.06h-5.08v-6.78h4.94v1.06H654v1.76h3.27v1H654v1.87Z" transform="translate(-592.36 -334.83)"/>
    <path class="cls-2" d="M665.3,425.43l-2.95,6.78h-1.23l-3-6.78h1.37l2.25,5.23,2.28-5.23Z" transform="translate(-592.36 -334.83)"/>
    <path class="cls-2" d="M671.1,431.15v1.06H666v-6.78H671v1.06h-3.68v1.76h3.27v1h-3.27v1.87Z" transform="translate(-592.36 -334.83)"/>
    <path class="cls-2" d="M672.5,425.43h1.26v5.71h3.54v1.07h-4.8Z" transform="translate(-592.36 -334.83)"/>
    <path class="cls-2" d="M677.69,428.82a3.65,3.65,0,1,1,3.65,3.48A3.47,3.47,0,0,1,677.69,428.82Zm6,0a2.38,2.38,0,1,0-2.37,2.38A2.3,2.3,0,0,0,683.71,428.82Z" transform="translate(-592.36 -334.83)"/>
    <path class="cls-2" d="M692,427.84c0,1.49-1.11,2.41-2.89,2.41h-1.52v2h-1.26v-6.78h2.78C690.88,425.43,692,426.34,692,427.84Zm-1.27,0c0-.85-.57-1.34-1.67-1.34h-1.47v2.69h1.47C690.15,429.19,690.72,428.69,690.72,427.84Z" transform="translate(-592.36 -334.83)"/>
    <path class="cls-2" d="M699.47,432.21v-4.49l-2.23,3.71h-.56l-2.22-3.66v4.44h-1.21v-6.78h1l2.69,4.49,2.64-4.49h1v6.78Z" transform="translate(-592.36 -334.83)"/>
    <path class="cls-2" d="M707.56,431.15v1.06h-5.08v-6.78h4.95v1.06h-3.69v1.76H707v1h-3.27v1.87Z" transform="translate(-592.36 -334.83)"/>
    <path class="cls-2" d="M715,425.43v6.78h-1l-3.74-4.59v4.59H709v-6.78h1l3.74,4.59v-4.59Z" transform="translate(-592.36 -334.83)"/>
    <path class="cls-2" d="M718.18,426.5h-2.25v-1.07h5.75v1.07h-2.25v5.71h-1.25Z" transform="translate(-592.36 -334.83)"/>
  </g>
</svg>
