<svg xmlns="http://www.w3.org/2000/svg" viewBox="0 0 180.75 97.47">
  <defs>
    <style>
      .cls-1 {
        fill: #3b3b40;
      }

      .cls-2 {
        fill: #f25e3d;
      }

      .cls-3 {
        fill: #47414c;
      }
    </style>
  </defs>
  <g id="Layer_2" data-name="Layer 2">
    <g id="Layer_1-2" data-name="Layer 1">
      <g>
        <path class="cls-1" d="M84.58,27.9l-3.77,3.93a2,2,0,0,0-.54,1.34v8.25a1.92,1.92,0,0,1-1.93,1.93H72.23a1.93,1.93,0,0,1-1.93-1.93V1.93A1.93,1.93,0,0,1,72.23,0h6.11a1.92,1.92,0,0,1,1.93,1.93V15.41a1.93,1.93,0,0,0,3.33,1.33L98.9.6a2,2,0,0,1,1.4-.6h5.89a1.93,1.93,0,0,1,1.41,3.24L93.79,18.11a1.93,1.93,0,0,0-.1,2.51l15.51,19.6a1.93,1.93,0,0,1-1.52,3.13h-6.79a1.93,1.93,0,0,1-1.5-.71L87.47,28A1.93,1.93,0,0,0,84.58,27.9Z"/>
        <path class="cls-2" d="M115.2,19.41,106.73,29a1.93,1.93,0,0,1-3-.08l-2.84-3.6a1.93,1.93,0,0,1,.06-2.47l5.29-6a2,2,0,0,1,1.45-.65h6A1.93,1.93,0,0,1,115.2,19.41Z"/>
      </g>
      <g>
        <path class="cls-3" d="M4.59,74.07,2.9,75.84V79H0V66.42H2.9v5.89l5.58-5.89h3.24L6.5,72,12,79H8.62Z"/>
        <path class="cls-3" d="M23.08,76.68V79H13.32V66.42h9.52v2.34H16.22V71.5h5.85v2.27H16.22v2.91Z"/>
        <path class="cls-3" d="M37.33,66.42,31.88,79H29l-5.44-12.6h3.15l3.84,9,3.88-9Z"/>
        <path class="cls-3" d="M38.38,66.42h2.91V79H38.38Z"/>
        <path class="cls-3" d="M55.83,66.42V79H53.44l-6.28-7.65V79H44.28V66.42h2.41L53,74.07V66.42Z"/>
        <path class="cls-3" d="M66.83,68.76v3.33h5.84v2.34H66.83V79H63.92V66.42h9.52v2.34Z"/>
        <path class="cls-3" d="M85.17,76.68V79H75.42V66.42h9.52v2.34H78.32V71.5h5.85v2.27H78.32v2.91Z"/>
        <path class="cls-3" d="M95.53,79l-2.44-3.51H90.41V79H87.5V66.42H93a7,7,0,0,1,2.91.56,4.37,4.37,0,0,1,1.9,1.58A4.42,4.42,0,0,1,98.42,71a4.07,4.07,0,0,1-2.59,4l2.83,4Zm-.74-9.65a3.06,3.06,0,0,0-2-.57H90.41v4.39h2.38a3,3,0,0,0,2-.58,2.27,2.27,0,0,0,0-3.24Z"/>
        <path class="cls-3" d="M112.28,66.42V79h-2.39l-6.28-7.65V79h-2.88V66.42h2.41l6.26,7.65V66.42Z"/>
        <path class="cls-3" d="M123.57,76.32h-5.85L116.6,79h-3l5.62-12.6h2.88L127.74,79h-3.06Zm-.92-2.21-2-4.83-2,4.83ZM121.46,62.8h3l-3.26,2.6H119Z"/>
        <path class="cls-3" d="M140.61,66.42V79h-2.39l-6.28-7.65V79h-2.88V66.42h2.41l6.26,7.65V66.42Z"/>
        <path class="cls-3" d="M143.6,66.42h5.73a7.94,7.94,0,0,1,3.62.79,5.82,5.82,0,0,1,2.45,2.2,6.73,6.73,0,0,1,0,6.62A5.84,5.84,0,0,1,153,78.24a8.06,8.06,0,0,1-3.62.78H143.6Zm5.58,10.21a4.25,4.25,0,0,0,3-1,4.2,4.2,0,0,0,0-5.71,4.25,4.25,0,0,0-3-1.05h-2.66v7.81Z"/>
        <path class="cls-3" d="M168.23,76.68V79h-9.76V66.42H168v2.34h-6.62V71.5h5.85v2.27h-5.85v2.91Z"/>
        <path class="cls-3" d="M180.75,76.65V79h-11V77.13l6.91-8.33h-6.77V66.42h10.6v1.89l-6.89,8.34Z"/>
      </g>
      <g>
        <path class="cls-2" d="M52.37,90.6h3a3.4,3.4,0,1,1,0,6.78h-3Zm2.9,5.71a2.33,2.33,0,1,0,0-4.64H53.63v4.64Z"/>
        <path class="cls-2" d="M65.44,96.32v1.06H60.36V90.6h5v1.06H61.62v1.76h3.27v1H61.62v1.86Z"/>
        <path class="cls-2" d="M72.94,90.6l-3,6.78H68.75l-3-6.78h1.37l2.25,5.23,2.27-5.23Z"/>
        <path class="cls-2" d="M78.74,96.32v1.06H73.66V90.6H78.6v1.06H74.92v1.76h3.26v1H74.92v1.86Z"/>
        <path class="cls-2" d="M80.14,90.6H81.4v5.71h3.54v1.07h-4.8Z"/>
        <path class="cls-2" d="M85.33,94A3.65,3.65,0,1,1,89,97.47,3.46,3.46,0,0,1,85.33,94Zm6,0A2.38,2.38,0,1,0,89,96.37,2.31,2.31,0,0,0,91.35,94Z"/>
        <path class="cls-2" d="M99.62,93c0,1.49-1.1,2.41-2.88,2.41H95.21v2H94V90.6h2.78C98.52,90.6,99.62,91.51,99.62,93Zm-1.26,0c0-.85-.57-1.34-1.68-1.34H95.21v2.69h1.47C97.79,94.36,98.36,93.86,98.36,93Z"/>
        <path class="cls-2" d="M107.1,97.38V92.89l-2.22,3.71h-.56L102.08,93v4.43h-1.2V90.6h1l2.69,4.49,2.64-4.49h1v6.78Z"/>
        <path class="cls-2" d="M115.2,96.32v1.06h-5.08V90.6h4.95v1.06h-3.69v1.76h3.27v1h-3.27v1.86Z"/>
        <path class="cls-2" d="M122.62,90.6v6.78h-1l-3.74-4.59v4.59H116.6V90.6h1l3.73,4.59V90.6Z"/>
        <path class="cls-2" d="M125.81,91.67h-2.24V90.6h5.75v1.07h-2.25v5.71h-1.26Z"/>
      </g>
    </g>
  </g>
</svg>
